<svg xmlns="http://www.w3.org/2000/svg" width="126" height="87"><g fill="#6b7280" fill-rule="nonzero"><path d="M4.788 68.876v10.188H0V61.352h4.644v2.196c1.08-1.836 3.204-2.664 5.112-2.664 4.392 0 6.408 3.132 6.408 7.02v11.16h-4.788V68.732c0-1.98-.972-3.528-3.276-3.528-2.088 0-3.312 1.62-3.312 3.672zm14.256 11.16l4.32-1.152c.324 1.944 1.872 3.348 4.14 3.348 3.024 0 4.716-1.512 4.716-4.932v-1.296c-.72 1.152-2.376 2.268-4.932 2.268-4.716 0-8.244-3.636-8.244-8.604 0-4.68 3.384-8.64 8.244-8.64 2.808 0 4.428 1.224 5.04 2.412v-2.088h4.608v15.804c0 4.86-2.628 9.288-9.288 9.288-4.86 0-8.1-3.024-8.604-6.408zm9.072-5.868c2.448 0 4.176-1.764 4.176-4.5 0-2.736-1.872-4.464-4.176-4.464-2.376 0-4.248 1.728-4.248 4.464 0 2.772 1.764 4.5 4.248 4.5zm20.916 1.08c2.34 0 4.5-1.692 4.5-5.04s-2.16-5.04-4.5-5.04-4.5 1.692-4.5 5.04c0 3.312 2.16 5.04 4.5 5.04zm0-14.436c5.292 0 9.288 3.924 9.288 9.396 0 5.436-3.996 9.396-9.288 9.396s-9.288-3.96-9.288-9.396c0-5.472 3.996-9.396 9.288-9.396zm23.148.468v4.824a7.21 7.21 0 0 0-1.44-.144c-2.448 0-4.572 1.188-4.572 5.004v8.1H61.38V61.352h4.644v2.628c1.08-2.34 3.528-2.772 5.04-2.772.396 0 .756.036 1.116.072zM91.548 53v22.86c0 1.188.072 2.484.144 3.204H87.12c-.072-.36-.18-1.224-.18-2.052-.792 1.404-2.592 2.484-4.968 2.484-5.04 0-8.64-3.96-8.64-9.324 0-5.184 3.492-9.252 8.496-9.252 3.06 0 4.5 1.26 5.004 2.196V53h4.716zM78.156 70.172c0 3.168 1.872 5.04 4.392 5.04 2.448 0 4.356-1.872 4.356-5.076 0-3.168-1.908-4.932-4.356-4.932s-4.392 1.8-4.392 4.968zm21.348-1.98h7.92c-.072-1.764-1.224-3.492-3.96-3.492-2.484 0-3.852 1.872-3.96 3.492zm8.388 4.608l3.996 1.188c-.9 3.06-3.708 5.616-8.064 5.616-4.86 0-9.144-3.492-9.144-9.468 0-5.652 4.176-9.324 8.712-9.324 5.472 0 8.748 3.492 8.748 9.18 0 .684-.072 1.404-.072 1.476H99.396c.108 2.34 2.088 4.032 4.464 4.032 2.232 0 3.456-1.116 4.032-2.7zM126 61.28v4.824a7.21 7.21 0 0 0-1.44-.144c-2.448 0-4.572 1.188-4.572 5.004v8.1H115.2V61.352h4.644v2.628c1.08-2.34 3.528-2.772 5.04-2.772.396 0 .756.036 1.116.072zM51.606 41.06V30.406a2.5 2.5 0 1 1 5 0V43.19l4.239 1.805a5.5 5.5 0 0 0 4.31 0l15.5-6.601A5.5 5.5 0 0 0 84 33.334V16.927a5.5 5.5 0 0 0-3.345-5.06L65.94 5.6a7.5 7.5 0 0 0-5.878 0l-4.458 1.899 18.355 7.768a2.5 2.5 0 0 1 1.525 2.303v5.908a2.5 2.5 0 1 1-5 0v-4.252L49.21 10.222l-3.864 1.646A5.5 5.5 0 0 0 42 16.928v16.405a5.5 5.5 0 0 0 3.345 5.06l6.261 2.668zM82.615 7.269A10.5 10.5 0 0 1 89 16.928v16.405a10.5 10.5 0 0 1-6.385 9.66l-15.5 6.603a10.5 10.5 0 0 1-8.23 0l-15.5-6.602A10.5 10.5 0 0 1 37 33.334V16.927a10.5 10.5 0 0 1 6.385-9.66L58.102 1a12.5 12.5 0 0 1 9.796 0l14.717 6.268z"/></g></svg>